# xmcd CD database file
#
# Track frame offsets:
#	150
#	13205
#	24756
#	40117
#	53314
#	66207
#	79573
#	93275
#	104767
#	117588
#	129097
#	141814
#	157844
#	172048
#	184723
#	198152
#	207875
#	221132
#
# Disc length: 3151 seconds
#
# Revision: 0
# Processed by: cddbd v1.5.2PL0 Copyright (c) Steve Scherf et al.
# Submitted via: CDex 1.70beta2
#
DISCID=eb0c4d12
DTITLE=Swiss-Horns - S'Drü 3
DYEAR=1900
DGENRE=Blasmusik
TTITLE0=Swiss-Balkan-Express (Balkan-Polka)
TTITLE1=Crazy Clarinet (Dixie-Fox)
TTITLE2=Stollberg Schottisch (Schottisch)
TTITLE3=Wigger's Best (Beat)
TTITLE4=Lasst die weissen Tauben fliegen (Slow)
TTITLE5=Steiner Chilbi (Schottisch)
TTITLE6=Ich möchte so gern ein Mozart sein (Walzer)
TTITLE7=Tiroler Hoppsassa (Hopser)
TTITLE8=Opern-Rag (Klassik-Rag)
TTITLE9=Mäcki Boogie (Boogie-Swing)
TTITLE10=Hiawatha-Rag (Polka-Rag)
TTITLE11=Sag mir warum (Tarantella-Fox)
TTITLE12=Space Shuffle (Schottisch-Rag)
TTITLE13=Royal Garden Blues (Medium Swing)
TTITLE14=Yesterday (Rock-Ballade)
TTITLE15=Salü (Tuba-Swing)
TTITLE16=Ragusa (Rag)
TTITLE17=Trumpet Holiday (Jump)
EXTD=
EXTT0=
EXTT1=
EXTT2=
EXTT3=
EXTT4=
EXTT5=
EXTT6=
EXTT7=
EXTT8=
EXTT9=
EXTT10=
EXTT11=
EXTT12=
EXTT13=
EXTT14=
EXTT15=
EXTT16=
EXTT17=
PLAYORDER=
